<svg width="150" height="150" viewBox="0 0 150 150" fill="none" xmlns="http://www.w3.org/2000/svg">
<g clip-path="url(#clip0_1_99)">
<path d="M45.3188 104.313C41.3523 102.038 38.6721 97.7634 38.6721 92.8711C38.6721 72.678 55.1001 56.25 75.2932 56.25H90.3845L91.0952 44.5312H5.58496L11.727 145.871C11.8678 148.191 13.7892 150 16.1135 150H43.0781C40.3132 146.325 38.6721 141.759 38.6721 136.816C38.6721 131.118 42.3068 126.254 47.3788 124.417C45.5809 121.66 44.5315 118.373 44.5315 114.844C44.5315 111.311 45.5832 108.021 47.3845 105.262C45.9517 104.939 45.1563 104.622 45.3188 104.313Z" fill="#64646A"/>
<path d="M48.3353 35.7433C48.3387 35.7433 48.3421 35.7422 48.3456 35.7422H92.2852C94.7124 35.7422 96.6797 33.7749 96.6797 31.3477C96.6797 28.9204 94.7124 26.9531 92.2852 26.9531H56.4526L68.2983 8.78906H83.4961C85.9234 8.78906 87.8906 6.82182 87.8906 4.39453C87.8906 1.96724 85.9234 0 83.4961 0H65.918C64.4325 0 63.0478 0.749588 62.2375 1.99356L45.9595 26.9531H4.39453C1.96724 26.9531 0 28.9204 0 31.3477C0 33.7749 1.96724 35.7422 4.39453 35.7422H48.3192C48.325 35.7422 48.3307 35.7433 48.3353 35.7433Z" fill="#64646A"/>
<path d="M47.4609 92.8711C47.4609 95.2984 49.4282 97.2656 51.8555 97.2656H145.605C148.033 97.2656 150 95.2984 150 92.8711C150 77.5246 137.514 65.0391 122.168 65.0391H75.293C59.9464 65.0391 47.4609 77.5246 47.4609 92.8711Z" fill="#64646A"/>
<path d="M60.7891 106C55.9345 106 52 109.934 52 114.789C52 119.644 55.9345 123.578 60.7891 123.578H134.031C138.886 123.578 142.82 119.644 142.82 114.789C142.82 109.934 138.886 106 134.031 106H60.7891Z" fill="#64646A"/>
<path d="M145.605 132.422H51.8555C49.4282 132.422 47.4609 134.389 47.4609 136.816C47.4609 144.086 53.3752 150 60.6445 150H136.816C144.086 150 150 144.086 150 136.816C150 134.389 148.033 132.422 145.605 132.422Z" fill="#64646A"/>
</g>
<defs>
<clipPath id="clip0_1_99">
<rect width="150" height="150" fill="white"/>
</clipPath>
</defs>
</svg>
